<?xml version="1.0" standalone="no"?>
<!DOCTYPE svg PUBLIC "-//W3C//DTD SVG 1.1//EN"
	  "http://www.w3.org/Graphics/SVG/1.1/DTD/svg11.dtd">
<svg xmlns="http://www.w3.org/2000/svg" version="1.1" 
     viewBox="0,0 84.4785,87.296" width="800" height="826.681">
  <defs> 
    <marker id="ArrowEnd" viewBox="0 0 10 10" refX="0" refY="5" 
	    markerUnits="strokeWidth" 
	    markerWidth="4" 
	    markerHeight="3" 
	    orient="auto"> 
      <path d="M 0 0 L 10 5 L 0 10 z" /> 
    </marker>
    <marker id="ArrowStart" viewBox="0 0 10 10" refX="10" refY="5" 
	    markerUnits="strokeWidth" 
	    markerWidth="4" 
	    markerHeight="3" 
	    orient="auto"> 
      <path d="M 10 0 L 0 5 L 10 10 z" /> 
  </marker> </defs>
  <g>
    <path style="stroke:#000000; stroke-width:1.4944; fill:none" d="M 76.6505 61.4059L 17.1275 61.4059L 70.7015 7.83191"/>
    <path style="stroke:none; fill-rule:evenodd; fill:#000000" d="M 16.8931 50.9489L 25.5416 52.9849L 20.1431 45.9299L 21.3267 50.2539"/>
    <path style="stroke:#000000; stroke-width:0.99626400000000004; fill:none" d="M 21.3267 50.2579L 21.4713 50.3209C 20.0884 49.778 18.6119 49.4999 17.1236 49.4999C 10.5494 49.4999 5.22126 54.8279 5.22126 61.403C 5.22126 67.9769 10.5494 73.3049 17.1236 73.3049C 23.6978 73.3049 29.0259 67.9769 29.0259 61.403"/>
    <path style="stroke:none; fill-rule:evenodd; fill:#000000" d="M 37.4595 74.4459C 38.6666 74.0429 39.522 72.9959 39.522 71.8129C 39.522 70.5859 38.2056 69.7459 36.772 69.7459C 35.2642 69.7459 34.1275 70.637 34.1275 71.77C 34.1275 72.2579 34.4478 72.5429 34.8775 72.5429C 35.3306 72.5429 35.6275 72.2189 35.6275 71.7889C 35.6275 71.0469 34.9673 71.0469 34.7603 71.0469C 35.2134 70.3359 36.1861 70.1489 36.7134 70.1489C 37.315 70.1489 38.1236 70.4769 38.1236 71.8209C 38.1236 71.9959 38.0963 72.864 37.7173 73.5239C 37.2798 74.239 36.7837 74.2849 36.4166 74.2969C 36.3033 74.309 35.9478 74.3399 35.8463 74.3399C 35.733 74.3519 35.6275 74.364 35.6275 74.4959C 35.6275 74.637 35.7291 74.637 35.9869 74.637L 36.6431 74.637C 37.8697 74.637 38.4244 75.6639 38.4244 77.145C 38.4244 79.1959 37.3931 79.6329 36.733 79.6329C 36.0923 79.6329 34.9673 79.3789 34.4439 78.4959C 34.9634 78.5709 35.4244 78.2419 35.4244 77.6759C 35.4244 77.1409 35.0181 76.8399 34.5767 76.8399C 34.2134 76.8399 33.7291 77.0469 33.7291 77.6989C 33.7291 79.0509 35.1158 80.0349 36.7447 80.0349C 38.565 80.0349 39.9244 78.6759 39.9244 77.1489C 39.9244 75.9219 38.9947 74.7539 37.4595 74.442L 37.4595 74.4459z"/>
    <path style="stroke:none; fill-rule:evenodd; fill:#000000" d="M 45.0259 70.137C 45.0259 69.7819 45.0259 69.7459 44.6822 69.7459C 43.7564 70.7459 42.44 70.7459 41.9595 70.7459L 41.9595 71.2459C 42.2603 71.2459 43.147 71.2459 43.9283 70.8279L 43.9283 78.5319C 43.9283 79.067 43.8853 79.2419 42.5298 79.2419L 42.0494 79.2419L 42.0494 79.7419C 42.5689 79.6989 43.8697 79.6989 44.4673 79.6989C 45.065 79.6989 46.3615 79.6989 46.8855 79.7419L 46.8855 79.2419L 46.4085 79.2419C 45.0689 79.2419 45.0259 79.0819 45.0259 78.528L 45.0259 70.137z"/>
    <path style="stroke:none; fill-rule:evenodd; fill:#000000" d="M 54.9245 76.7149C 54.9245 74.942 53.7095 73.4459 52.1075 73.4459C 51.3975 73.4459 50.7605 73.692 50.2295 74.231L 50.2295 71.3209C 50.5255 71.3789 51.0145 71.4489 51.4905 71.4489C 53.3155 71.4489 54.3545 70.145 54.3545 69.9569C 54.3545 69.8709 54.3115 69.8009 54.2055 69.8009C 54.1935 69.8009 54.1625 69.8009 54.0885 69.8439C 53.7915 69.9689 53.0575 70.2539 52.0535 70.2539C 51.4555 70.2539 50.7685 70.1559 50.0655 69.8599C 49.9475 69.817 49.9165 69.817 49.8855 69.817C 49.7365 69.817 49.7365 69.934 49.7365 70.1719L 49.7365 74.5939C 49.7365 74.8599 49.7365 74.981 49.9475 74.981C 50.0495 74.981 50.0805 74.934 50.1435 74.8439C 50.3075 74.5939 50.8655 73.7539 52.0845 73.7539C 52.8655 73.7539 53.2405 74.4459 53.3615 74.7149C 53.6005 75.27 53.6315 75.856 53.6315 76.6099C 53.6315 77.1329 53.6315 78.0389 53.2725 78.6679C 52.9125 79.2539 52.3575 79.645 51.6665 79.645C 50.5725 79.645 49.7175 78.8599 49.4635 77.9849C 49.5065 78.0159 49.5495 78.0469 49.7095 78.0469C 50.1865 78.0469 50.4365 77.6679 50.4365 77.2969C 50.4365 76.934 50.1785 76.5469 49.6785 76.5469C 49.4675 76.5469 48.9395 76.6489 48.9395 77.3319C 48.9395 78.606 49.9755 80.0429 51.6585 80.0429C 53.4005 80.0429 54.9365 78.6099 54.9365 76.7149L 54.9245 76.7149z"/>
    <path style="stroke:none; fill-rule:evenodd; fill:#000000" d="M 61.0255 71.6989C 61.0255 70.4219 59.9985 69.4459 58.7755 69.4459C 57.5255 69.4459 56.5295 70.4609 56.5295 71.6879C 56.5295 72.9649 57.5575 73.942 58.7755 73.942C 60.0255 73.942 61.0255 72.9259 61.0255 71.6989zM 58.7755 73.4459C 57.7915 73.4459 57.0255 72.645 57.0255 71.7029C 57.0255 70.731 57.8075 69.9489 58.7755 69.9489C 59.7605 69.9489 60.5255 70.7499 60.5255 71.692C 60.5255 72.6639 59.7445 73.4459 58.7755 73.4459z"/>
  </g>
</svg>
