<?xml version="1.0" standalone="no"?>
<!DOCTYPE svg PUBLIC "-//W3C//DTD SVG 1.1//EN"
	  "http://www.w3.org/Graphics/SVG/1.1/DTD/svg11.dtd">
<svg xmlns="http://www.w3.org/2000/svg" version="1.1" 
     viewBox="0,0 75.1868,69.2379" width="800" height="736.703">
  <defs> 
    <marker id="ArrowEnd" viewBox="0 0 10 10" refX="0" refY="5" 
	    markerUnits="strokeWidth" 
	    markerWidth="4" 
	    markerHeight="3" 
	    orient="auto"> 
      <path d="M 0 0 L 10 5 L 0 10 z" /> 
    </marker>
    <marker id="ArrowStart" viewBox="0 0 10 10" refX="10" refY="5" 
	    markerUnits="strokeWidth" 
	    markerWidth="4" 
	    markerHeight="3" 
	    orient="auto"> 
      <path d="M 10 0 L 0 5 L 10 10 z" /> 
  </marker> </defs>
  <g>
    <path style="stroke:#000000; stroke-width:1.4944; fill:none" d="M 67.3549 61.4059L 7.83192 61.4059L 61.4059 7.83191"/>
    <path style="stroke:none; fill-rule:evenodd; fill:#000000" d="M 29.3475 52.1599L 21.8631 47.3749L 24.621 55.8209L 24.9335 51.348"/>
    <path style="stroke:#000000; stroke-width:0.99626400000000004; fill:none" d="M 27.6717 61.4059C 27.6717 57.8239 26.703 54.309 24.8631 51.231"/>
    <path style="stroke:none; fill-rule:evenodd; fill:#000000" d="M 31.1483 52.4459L 35.1288 52.4459L 35.1288 53.7419C 35.1288 54.278 35.1014 54.442 33.9881 54.442L 33.6757 54.442L 33.6757 54.942C 34.285 54.8989 35.0624 54.8989 35.6913 54.8989C 36.3159 54.8989 37.1089 54.8989 37.7229 54.942L 37.7229 54.442L 37.4219 54.442C 36.3589 54.442 36.3319 54.2819 36.3319 53.7419L 36.3319 52.4459L 37.7699 52.4459L 37.7699 51.9459L 36.2339 51.9459L 36.2339 45.231C 36.2339 44.9379 36.2339 44.848 35.9999 44.848C 35.8669 44.848 35.8241 44.848 35.7069 45.0239L 31.16 51.942L 31.1483 52.4459zM 35.2147 51.9459L 31.5702 51.9459L 35.2147 46.4459L 35.2147 51.9459z"/>
    <path style="stroke:none; fill-rule:evenodd; fill:#000000" d="M 45.0309 51.9179C 45.0309 50.145 43.8159 48.6489 42.2149 48.6489C 41.5039 48.6489 40.8669 48.895 40.3359 49.434L 40.3359 46.5239C 40.6329 46.5819 41.1209 46.653 41.5979 46.653C 43.4219 46.653 44.4609 45.348 44.4609 45.1599C 44.4609 45.0739 44.4179 45.0039 44.3119 45.0039C 44.3009 45.0039 44.2699 45.0039 44.1949 45.0469C 43.8979 45.1719 43.1639 45.4569 42.1599 45.4569C 41.5619 45.4569 40.8749 45.3599 40.1719 45.0629C 40.0549 45.02 40.0229 45.02 39.9919 45.02C 39.8439 45.02 39.8439 45.137 39.8439 45.3749L 39.8439 49.7969C 39.8439 50.0629 39.8439 50.184 40.0549 50.184C 40.1559 50.184 40.1869 50.137 40.2499 50.0469C 40.4139 49.7969 40.9729 48.9569 42.1909 48.9569C 42.9729 48.9569 43.3479 49.6489 43.4689 49.9179C 43.7069 50.473 43.7379 51.059 43.7379 51.8129C 43.7379 52.3359 43.7379 53.2419 43.3789 53.8709C 43.0199 54.4569 42.4649 54.848 41.7729 54.848C 40.6799 54.848 39.8239 54.0629 39.5699 53.1879C 39.6129 53.2189 39.6559 53.2499 39.8159 53.2499C 40.2929 53.2499 40.5429 52.8709 40.5429 52.4999C 40.5429 52.137 40.2849 51.7499 39.7849 51.7499C 39.5739 51.7499 39.0469 51.8519 39.0469 52.5349C 39.0469 53.809 40.0819 55.2459 41.7659 55.2459C 43.5079 55.2459 45.0429 53.8129 45.0429 51.9179L 45.0309 51.9179z"/>
    <path style="stroke:none; fill-rule:evenodd; fill:#000000" d="M 51.1289 46.903C 51.1289 45.6249 50.1019 44.6489 48.8789 44.6489C 47.6289 44.6489 46.6329 45.6639 46.6329 46.8909C 46.6329 48.1679 47.6599 49.145 48.8789 49.145C 50.1289 49.145 51.1289 48.1289 51.1289 46.903zM 48.8789 48.645C 47.8939 48.645 47.1289 47.8439 47.1289 46.903C 47.1289 45.9299 47.9099 45.1489 48.8789 45.1489C 49.8629 45.1489 50.6289 45.9489 50.6289 46.8909C 50.6289 47.864 49.8479 48.645 48.8789 48.645z"/>
  </g>
</svg>
